<svg width="830" height="450" viewBox="0 0 830 450" fill="none" xmlns="http://www.w3.org/2000/svg">
<g clip-path="url(#clip0_77_1221)">
<path fill-rule="evenodd" clip-rule="evenodd" d="M155.296 442.182C155.296 442.182 56.5604 288.885 214.997 207.21C271.139 178.27 297.107 191.762 300.887 108.265C307.079 -28.4222 449.779 -20.2735 500.85 48.0163C536.238 95.3448 524.398 131.487 575.496 157.103C638.115 188.483 675.051 139.43 758.005 188.411C865.708 252.001 834.937 414.778 779.667 442.191H155.296V442.182Z" fill="#B292FF"/>
<path fill-rule="evenodd" clip-rule="evenodd" d="M300.95 107.103C307.88 -28.3775 449.93 -20.0858 500.859 48.0164C534.842 93.4595 525.27 128.592 569.696 153.994C556.023 187.491 493.742 212.616 467.499 175.205C440.82 137.169 375.266 137.187 341.684 129.155C322.327 124.526 309.445 116.547 300.958 107.103H300.95Z" fill="#CFC0FF"/>
<path fill-rule="evenodd" clip-rule="evenodd" d="M307.657 68.0575C337.547 -25.8846 455.436 -12.7234 500.85 48.0164C517.833 70.729 523.944 90.8684 531.345 108.506C480.648 140.859 461.068 47.936 401.34 81.2008C375.889 95.3806 332.975 79.7712 307.657 68.0575Z" fill="#F1EEFF"/>
<path fill-rule="evenodd" clip-rule="evenodd" d="M609.443 167.566C654.11 173.177 691.081 148.892 758.005 188.402C865.708 251.992 834.937 414.76 779.667 442.182H155.296C155.296 442.182 56.5604 288.885 214.997 207.21C249.798 189.269 272.999 187.634 286.512 169.103C298.752 182.872 315.966 195.765 339.336 200.456C397.648 212.169 385.176 313.402 445.144 310.061C505.111 306.71 495.94 275.759 535.1 274.08C574.251 272.409 591.749 224.714 597.576 200.456C599.657 191.78 603.394 179.584 609.434 167.566H609.443Z" fill="#9E6CFF"/>
<path fill-rule="evenodd" clip-rule="evenodd" d="M178.239 230.817C191.814 253.896 212.729 275.688 244.211 280.602C330.013 293.987 329.826 322.695 340.012 361.758C356.469 424.875 433.01 401.108 456.762 442.182H155.296C155.296 442.182 73.516 315.207 178.239 230.817ZM775.842 200.813C861.945 270.952 831.637 416.405 779.667 442.182H483.343C507.095 401.108 583.636 424.875 600.093 361.758C610.279 322.695 610.092 293.987 695.894 280.602C741.29 273.517 764.695 231.344 775.85 200.804L775.842 200.813Z" fill="#8438FA"/>
<path fill-rule="evenodd" clip-rule="evenodd" d="M820.09 446.086C820.09 443.933 818.346 442.173 816.193 442.173H118.885C116.741 442.173 114.989 443.924 114.989 446.086C114.989 448.249 116.732 450 118.885 450H816.193C818.337 450 820.09 448.249 820.09 446.086Z" fill="#5900CB"/>
<path d="M232.051 431.058C232.051 431.058 222.648 440.842 222.648 444.005C215.575 446.033 203.059 442.923 203.059 440.779C203.059 438.635 213.485 430.272 213.485 430.272C213.485 430.272 208.832 419.764 203.059 412.437C198.104 406.237 172.208 388.527 164.299 383.354C191.53 400.661 223.315 403.529 223.315 403.529L232.051 431.049V431.058Z" fill="#23E2C2"/>
<g opacity="0.2">
<path d="M232.051 431.058C232.051 431.058 222.648 440.842 222.648 444.005C215.575 446.033 203.059 442.923 203.059 440.779C203.059 438.635 213.485 430.272 213.485 430.272C213.485 430.272 208.832 419.764 203.059 412.437C198.104 406.237 172.208 388.527 164.299 383.354C191.53 400.661 223.315 403.529 223.315 403.529L232.051 431.049V431.058Z" fill="#03031C"/>
</g>
<path d="M344.308 232.47L344.291 232.514C341.8 215.851 336.035 198.821 327.886 183.301C312.977 154.959 286.503 134.542 255.5 126.957C249.06 125.393 242.53 124.383 235.965 123.955C233.59 123.794 231.214 123.731 228.857 123.731C223.439 123.731 218.022 124.124 212.64 124.911L196.725 127.234C177.634 130.03 159.495 137.58 144.319 149.544C131.962 159.266 119.028 173.168 110.203 192.414C104.171 205.513 99.8213 219.585 97.4461 234.069C96.4942 239.859 95.8537 245.72 95.5512 251.608C95.4979 252.618 95.4534 253.637 95.4267 254.655C95.3911 255.558 95.3644 256.46 95.3555 257.362C95.32 259.703 95.3466 262.053 95.4178 264.403C95.4089 264.421 95.4089 264.439 95.4178 264.448C95.827 277.618 97.9443 290.815 101.983 303.654C103.059 307.076 104.269 310.472 105.621 313.84C110.514 326.045 117.248 337.831 126.002 348.838C163.409 395.881 217.025 406.371 217.025 406.371L227.469 430.406C227.469 430.406 215.762 440.922 215.762 444.067C215.762 447.212 226.206 448.24 234.39 447.212C236.863 446.9 239.55 446.408 242.094 445.854C243.224 445.613 244.327 445.363 245.368 445.113C249.709 444.067 253.036 443.04 253.036 443.04C253.036 443.04 257.689 439.895 258.818 432.532C258.818 432.532 283.362 410.525 283.362 395.863C283.362 395.863 292.676 393.719 298.592 387.518C304.383 381.183 307.906 377.01 309.045 366.646C309.045 366.646 325.405 350.956 333.589 328.958C341.782 306.951 350.242 271.158 344.308 232.47Z" fill="#23E2C2"/>
<path d="M167.075 255.289C166.941 255.897 166.79 256.478 166.621 257.05C166.345 257.202 166.043 257.344 165.705 257.496C165.375 257.639 165.02 257.773 164.628 257.907C163.454 258.318 162.004 258.676 160.216 258.935C159.922 258.98 159.611 259.015 159.291 259.051C158.979 259.087 158.65 259.123 158.312 259.158C156.444 259.328 154.273 259.4 151.747 259.319C151.711 259.328 151.676 259.328 151.631 259.319C150.457 259.283 149.203 259.212 147.859 259.114H147.833C147.388 259.078 146.934 259.042 146.472 258.997C145.991 258.962 145.493 258.917 144.986 258.854C144.506 258.81 144.025 258.756 143.536 258.694C143.491 258.694 143.456 258.694 143.411 258.676C142.931 258.622 142.451 258.56 141.952 258.497C140.485 258.309 138.946 258.086 137.318 257.818C136.864 257.738 136.401 257.666 135.939 257.586C132.505 256.996 128.715 256.228 124.543 255.263C123.742 255.084 122.924 254.887 122.097 254.691C122.088 254.61 122.079 254.53 122.079 254.45C121.83 251.537 121.821 248.517 122.177 245.667C122.221 245.336 122.266 245.023 122.319 244.702C124.081 244.38 126.251 243.969 128.698 243.477C135.263 242.137 143.865 240.163 152.121 237.58C158.143 235.695 163.97 233.488 168.694 230.969C168.747 231.764 168.792 232.568 168.827 233.39C169.138 240.556 168.64 248.749 167.075 255.289Z" fill="white"/>
<path d="M152.37 256.612C152.201 257.559 151.996 258.47 151.747 259.319C151.711 259.328 151.676 259.328 151.631 259.319C150.457 259.283 149.194 259.221 147.859 259.114H147.833C147.388 259.078 146.934 259.042 146.472 258.997C145.991 258.962 145.493 258.917 144.986 258.854C144.506 258.81 144.025 258.756 143.536 258.694C143.491 258.694 143.456 258.694 143.411 258.676C142.931 258.622 142.451 258.56 141.952 258.497C140.485 258.309 138.946 258.086 137.318 257.818C136.864 257.738 136.401 257.666 135.939 257.586C132.505 256.996 128.715 256.228 124.543 255.263C124.543 255.084 124.543 254.905 124.552 254.735C124.614 252.064 125.095 249.464 126.207 247.436C126.536 246.864 126.883 246.265 127.274 245.649C127.701 244.943 128.173 244.21 128.697 243.477C135.263 242.137 143.865 240.163 152.121 237.58C152.432 238.715 152.681 240.136 152.859 241.735C153.33 246.14 153.241 251.876 152.37 256.612Z" fill="#EA26A9"/>
<path d="M139.293 253.1C139.257 253.216 139.221 253.306 139.177 253.413C139.141 253.502 139.106 253.601 139.043 253.708C138.99 253.842 138.91 253.967 138.839 254.101C138.786 254.173 138.723 254.271 138.67 254.342C138.581 254.476 138.483 254.566 138.376 254.682C136.259 256.585 131.215 256.585 130.414 255.852C129.614 255.146 128.555 250.616 129.881 248.231C130.441 247.266 131.162 246.104 132.185 245.139C133.67 243.745 135.805 242.772 138.937 243.477C139.995 243.719 140.405 249.884 139.293 253.109V253.091V253.1Z" fill="white"/>
<path d="M174.058 227.582C173.951 227.788 172.546 230.298 168.827 233.39C165.544 236.115 160.456 239.296 152.859 241.735C146.329 243.844 137.949 245.398 127.274 245.649C125.628 245.684 123.929 245.693 122.177 245.667C120.656 245.649 119.081 245.595 117.471 245.524C117.471 245.524 119.294 245.247 122.319 244.702C124.081 244.38 126.251 243.969 128.697 243.477C135.263 242.137 143.865 240.163 152.121 237.58C158.143 235.695 163.97 233.488 168.694 230.968C170.704 229.896 172.519 228.762 174.058 227.582Z" fill="#00A3A0"/>
<path d="M169.521 254.199C169.521 254.199 169.183 255.674 166.621 257.05C166.345 257.201 166.043 257.344 165.705 257.496C165.375 257.639 165.02 257.773 164.628 257.907C163.454 258.318 162.004 258.676 160.216 258.935C159.922 258.98 159.611 259.015 159.291 259.051C158.979 259.087 158.65 259.122 158.312 259.158C156.453 259.337 154.282 259.399 151.747 259.319C151.711 259.328 151.676 259.328 151.631 259.319C150.457 259.283 149.194 259.221 147.859 259.114H147.833C147.388 259.078 146.934 259.042 146.472 258.997C145.991 258.962 145.493 258.917 144.986 258.854C144.506 258.81 144.025 258.756 143.536 258.694C143.491 258.694 143.456 258.694 143.411 258.676C142.931 258.622 142.451 258.56 141.952 258.497C140.485 258.309 138.946 258.086 137.318 257.818C136.864 257.738 136.401 257.666 135.939 257.586C132.505 256.996 128.715 256.228 124.543 255.263C123.743 255.084 122.924 254.887 122.097 254.691C121.456 254.539 120.798 254.378 120.14 254.208C120.326 254.235 121.011 254.315 122.079 254.45C122.755 254.53 123.591 254.628 124.552 254.735C130.752 255.423 142.353 256.558 152.37 256.612C158.303 256.656 163.685 256.317 167.075 255.289C168.08 254.986 168.907 254.628 169.521 254.199Z" fill="#00A3A0"/>
<path fill-rule="evenodd" clip-rule="evenodd" d="M112.703 239.814L111.769 260.597L133.626 262.187L134.56 241.405L112.703 239.814Z" fill="#9FAEE8"/>
<path fill-rule="evenodd" clip-rule="evenodd" d="M112.703 239.814L111.769 260.597L122.23 261.356L123.164 240.574L112.703 239.814Z" fill="#8998DA"/>
<path fill-rule="evenodd" clip-rule="evenodd" d="M40.5121 229.932L39.151 260.311L117.844 266.029L119.206 235.65L40.5121 229.932Z" fill="#9FAEE8"/>
<path fill-rule="evenodd" clip-rule="evenodd" d="M44.3729 260.695L39.1421 260.311L40.5032 229.932L45.734 230.307V230.316L53.429 230.87L51.9167 261.356" fill="#8998DA"/>
<path fill-rule="evenodd" clip-rule="evenodd" d="M6.93881 223.856L5.2041 262.42L44.1683 265.252L45.903 226.689L6.93881 223.856Z" fill="#9FAEE8"/>
<path fill-rule="evenodd" clip-rule="evenodd" d="M6.93881 223.856L5.2041 262.42L44.1683 265.252L44.3462 261.365L13.0414 257.291L14.6338 224.419L6.94771 223.856H6.93881Z" fill="#93A1DE"/>
<path fill-rule="evenodd" clip-rule="evenodd" d="M2.09944 218.594L0 265.422L8.30881 266.029L10.4082 219.201L2.09944 218.594Z" fill="#C1CBF3"/>
<g opacity="0.2">
<path d="M144.692 275.768L120.842 309.739C122.515 310.597 120.611 315.234 120.113 318.558H120.095C114.953 318.084 110.007 316.458 105.621 313.84C104.269 310.472 103.059 307.076 101.983 303.654C81.1576 283.971 78.7824 269.88 78.8269 263.233L73.6761 262.848V262.822C73.7651 260.767 74.032 259.122 74.2633 257.881C75.4731 251.492 80.8463 247.275 91.2901 252.323C92.0196 252.68 92.7757 253.082 93.5586 253.529C94.1635 253.878 94.7862 254.253 95.4267 254.655C96.7433 255.495 98.1311 256.469 99.5811 257.577C101.885 259.337 104.465 260.972 107.196 262.473C109.313 263.635 111.519 264.725 113.752 265.734C128.582 272.436 144.71 275.741 144.71 275.741L144.692 275.768Z" fill="#03031C"/>
</g>
<path d="M144.764 275.777L120.149 318.594C120.149 318.594 120.113 318.567 120.095 318.558C112.881 313.286 106.911 308.318 101.983 303.654C81.1576 283.971 78.7824 269.88 78.8269 263.233V263.197C78.8358 262.411 78.8625 261.723 78.9159 261.151C79.3607 255.835 83.773 252.421 91.8683 255.674C91.9395 255.692 92.0196 255.727 92.0996 255.763C93.1227 256.183 94.2169 256.719 95.3556 257.362C97.0013 258.292 98.7627 259.462 100.64 260.901C102.695 262.464 105.114 263.894 107.756 265.189C107.845 265.234 107.934 265.279 108.014 265.315C122.515 272.364 143.314 275.563 144.692 275.768C144.737 275.768 144.764 275.768 144.764 275.768V275.777Z" fill="#23E2C2"/>
<path d="M365.143 56.7816C358.07 70.1393 350.98 83.4882 343.899 96.8459C332.459 116.396 306.483 125.634 283.398 122.328C267.047 118.031 250.403 115.02 233.616 113.322C236.054 95.7737 238.491 78.2344 240.929 60.704C244.887 33.9349 273.897 17.9503 305.691 29.1458C326.17 36.8834 346.034 46.1311 365.143 56.7994V56.7816Z" fill="#EA26A9"/>
<g opacity="0.2">
<path d="M365.143 56.7816C358.07 70.1394 350.98 83.4882 343.899 96.8459C332.459 116.396 306.483 125.634 283.398 122.328C267.047 118.031 250.403 115.02 233.616 113.322C234.079 113.974 254.966 109.587 282.473 102.895C309.765 95.4074 343.677 85.6058 365.152 56.7816H365.143Z" fill="#03031C"/>
</g>
<path opacity="0.2" d="M333.589 328.958C325.405 350.956 309.045 366.646 309.045 366.646C307.906 377.01 304.383 381.183 298.592 387.518C292.676 393.719 283.362 395.863 283.362 395.863C283.362 410.525 258.818 432.532 258.818 432.532C257.689 439.895 253.036 443.04 253.036 443.04C253.036 443.04 249.709 444.067 245.368 445.113C244.327 445.363 243.224 445.613 242.094 445.854C253.899 420.121 258.89 389.394 258.89 389.394C357.599 232.729 228.857 123.731 228.857 123.731C231.214 123.731 233.59 123.794 235.965 123.955C242.53 124.383 249.06 125.393 255.5 126.957C286.503 134.542 312.977 154.959 327.886 183.301C336.035 198.821 341.8 215.851 344.291 232.514L344.308 232.47C350.242 271.158 341.782 306.951 333.589 328.958Z" fill="#03031C"/>
<path fill-rule="evenodd" clip-rule="evenodd" d="M675.46 281.415C675.46 281.415 681.313 244.666 721.292 236.392C721.292 236.392 744.288 291.333 697.753 331.889L675.46 281.415Z" fill="url(#paint0_linear_77_1221)"/>
<path fill-rule="evenodd" clip-rule="evenodd" d="M696.988 247.123L702.779 308.336C712.885 305.102 719.023 294.014 719.477 280.54C719.86 269.264 723.605 261.741 726.336 257.711C728.622 277.421 725.962 307.3 697.753 331.889L682.746 297.909L696.97 247.141H696.979L696.997 247.123H696.988Z" fill="url(#paint1_linear_77_1221)"/>
<path fill-rule="evenodd" clip-rule="evenodd" d="M719.895 236.696C720.358 236.589 720.82 236.49 721.292 236.392C721.292 236.392 721.567 237.053 721.994 238.277L712.191 256.299L725.651 252.806C725.793 253.645 725.926 254.503 726.051 255.397L710.492 259.435L697.806 282.747L726.264 279.896C726.149 280.772 726.024 281.665 725.882 282.559L696.303 285.516L686.784 303.002L718.587 305.379C718.169 306.219 717.733 307.059 717.28 307.899L686.144 305.566L684.48 301.805L694.275 283.81L687.451 256.353C688.11 255.549 688.804 254.736 689.524 253.94L696.107 280.432L707.894 258.765C707.69 258.077 704.834 248.472 703.144 243.075C703.9 242.647 704.674 242.236 705.475 241.833C706.693 245.711 708.597 252.055 709.647 255.549L719.913 236.687L719.895 236.696Z" fill="#FFEAA5"/>
<path fill-rule="evenodd" clip-rule="evenodd" d="M754.411 442.182C754.411 442.182 788.927 426.313 796.4 377.502C796.4 377.502 746.618 359.042 706.444 391.816L704.096 442.182H754.411Z" fill="url(#paint2_linear_77_1221)"/>
<path fill-rule="evenodd" clip-rule="evenodd" d="M739.181 375.286C748.166 372.972 756.858 372.23 764.642 372.328C764.312 372.82 749.278 395.238 724.441 407.255C724.441 407.255 721.372 429.316 729.663 431.871C736.949 434.123 756.68 433.238 771.723 429.065C762.524 438.456 754.42 442.182 754.42 442.182H704.105L706.453 391.816C707.076 391.306 707.708 390.806 708.348 390.314C716.185 385.865 727.821 380.37 739.19 375.286H739.181Z" fill="url(#paint3_linear_77_1221)"/>
<path fill-rule="evenodd" clip-rule="evenodd" d="M754.18 372.722C753.308 372.802 752.427 372.891 751.538 372.999L747.721 407.121L725.277 421.569L727.03 379.387C726.149 379.762 725.268 380.155 724.387 380.558L722.608 423.276L704.443 434.962L704.292 438.152L724.423 425.206L754.509 442.128C754.794 441.994 755.754 441.521 757.205 440.654L726.896 423.606L749.1 409.319L778.35 421.408C778.884 420.711 779.418 419.988 779.951 419.246L751.769 407.595L773.813 393.406L790.893 398.704C791.196 397.9 791.498 397.087 791.783 396.256L776.669 391.565L796.151 379.03C796.24 378.52 796.32 377.993 796.4 377.475C796.4 377.475 795.795 377.252 794.656 376.894L774.881 389.618L776.091 373.052C775.245 372.954 774.392 372.865 773.511 372.784L772.159 391.378L750.533 405.29L754.18 372.704V372.722Z" fill="#FFEAA5"/>
<path fill-rule="evenodd" clip-rule="evenodd" d="M675.46 442.182H718.73C718.73 442.182 711.568 413.152 726.941 404.039C776.66 374.553 774.703 345.613 771.376 318.299C768.058 290.985 767.889 280.799 778.626 268.835C792.21 253.699 772.612 234.918 786.748 229.128C786.748 229.128 767.284 225.956 761.483 236.678C755.683 247.4 740.765 244.996 731.718 253.029C718.383 264.877 724.023 302.171 713.419 313.822C702.824 325.474 675.46 329.548 675.46 329.548V442.182Z" fill="url(#paint4_linear_77_1221)"/>
<path fill-rule="evenodd" clip-rule="evenodd" d="M781.909 228.708C780.574 228.994 779.231 229.342 777.959 229.762C775.157 230.683 772.719 231.969 771.394 233.622C770.593 234.614 769.97 235.704 769.437 236.857L768.182 230.843C767.346 231.21 766.545 231.63 765.798 232.112L767.693 241.235C767.693 241.235 767.711 241.315 767.729 241.36C766.536 244.889 765.255 248.704 761.653 252.091C760.274 253.386 758.29 254.351 756.173 255.566C755.915 255.709 755.657 255.861 755.399 256.013L752.481 244.21C751.689 244.541 750.871 244.845 750.035 245.139L753.086 257.487C748.54 260.668 744.145 265.69 743.291 276.671C743.033 280.039 743.247 283.283 743.558 286.669L724.859 265.395C724.574 266.378 724.307 267.387 724.058 268.424L743.727 290.797C743.798 290.877 743.87 290.94 743.959 291.003C744.555 297.882 744.822 305.799 741.646 316.95C740.338 321.542 738.968 325.554 737.545 329.083L720.731 294.836C720.598 294.559 720.367 294.344 720.109 294.228C719.904 295.559 719.69 296.873 719.459 298.142L736.192 332.237C728.471 349.348 719.219 353.592 709.113 358.301C707.903 358.863 706.676 359.435 705.448 360.034L700.271 322.48C699.452 322.838 698.625 323.186 697.798 323.517L703.002 361.258C694.809 365.493 686.188 371.533 677.47 385.481L682.105 328.252C681.135 328.467 680.246 328.663 679.454 328.815L675.469 378.065V395.568L718.881 414.68C719.157 413.849 719.477 413.036 719.833 412.25L676.839 393.326L676.99 391.422C686.473 374.446 695.867 367.825 704.745 363.286L753.201 384.248C753.869 383.578 754.509 382.907 755.132 382.246L707.823 361.776C708.624 361.392 709.425 361.026 710.216 360.65C720.767 355.736 730.463 351.34 738.541 333.408L772.586 330.138C772.523 329.271 772.461 328.404 772.381 327.538L739.706 330.674C741.254 326.912 742.731 322.605 744.137 317.655C747.401 306.21 747.161 298.061 746.565 290.976L769.739 287.759C769.846 286.83 769.988 285.936 770.157 285.07L746.334 288.376C745.96 284.417 745.587 280.727 745.889 276.858C746.681 266.628 750.862 262.116 755.096 259.266L782.62 262.152C782.914 261.303 783.136 260.454 783.305 259.605L758.833 257.041C760.621 256.031 762.231 255.111 763.441 253.976C766.883 250.742 768.449 247.159 769.668 243.728C769.872 243.156 770.059 242.584 770.246 242.03L781.491 239.725C781.384 238.813 781.322 237.938 781.339 237.098L771.269 239.162C771.83 237.75 772.488 236.428 773.431 235.257C774.89 233.444 778.057 232.327 781.286 231.531C782.087 231.335 782.905 231.165 783.697 231.013C784.471 230.289 785.476 229.655 786.766 229.128C786.766 229.128 784.8 228.806 781.926 228.717L781.909 228.708Z" fill="#FFEAA5"/>
<path fill-rule="evenodd" clip-rule="evenodd" d="M557.606 272.177C556.619 273.901 555.614 275.634 554.573 277.35L556.281 278.395C557.331 276.662 558.345 274.92 559.341 273.177L557.606 272.177ZM564.171 259.811C563.291 261.598 562.383 263.376 561.449 265.154L563.22 266.092C564.163 264.296 565.079 262.5 565.968 260.704L564.171 259.811ZM569.989 247.078C569.215 248.91 568.415 250.742 567.588 252.573L569.411 253.404C570.247 251.555 571.057 249.705 571.831 247.856L569.989 247.069V247.078ZM575.025 234.015C574.366 235.892 573.681 237.768 572.961 239.653L574.829 240.368C575.549 238.474 576.243 236.58 576.91 234.686L575.025 234.015ZM579.25 220.667C578.707 222.579 578.138 224.5 577.542 226.421L579.455 227.019C580.06 225.08 580.629 223.15 581.181 221.212L579.259 220.667H579.25ZM582.631 207.076C582.212 209.024 581.768 210.972 581.287 212.929L583.235 213.402C583.716 211.428 584.17 209.462 584.588 207.496L582.631 207.076ZM585.13 193.299C584.837 195.264 584.516 197.239 584.17 199.223L586.144 199.571C586.5 197.57 586.821 195.577 587.114 193.594L585.13 193.299ZM586.723 179.387C586.563 181.371 586.376 183.363 586.153 185.365L588.146 185.588C588.368 183.569 588.555 181.558 588.724 179.557L586.732 179.396L586.723 179.387ZM514.648 147.722C512.735 147.141 510.858 146.506 509.008 145.827L508.323 147.713C510.209 148.401 512.121 149.044 514.07 149.643L514.657 147.722H514.648ZM501.678 142.807C499.863 141.976 498.092 141.092 496.358 140.154L495.406 141.923C497.176 142.879 498.991 143.79 500.841 144.639L501.678 142.807ZM528.152 151.01C526.186 150.643 524.238 150.241 522.316 149.786L521.862 151.742C523.811 152.198 525.785 152.609 527.787 152.984L528.152 151.01ZM489.579 136.061C487.933 134.954 486.323 133.792 484.775 132.568L483.539 134.149C485.131 135.4 486.768 136.598 488.467 137.732L489.579 136.061ZM541.932 152.868C539.939 152.698 537.964 152.484 535.998 152.234L535.749 154.226C537.733 154.476 539.743 154.691 541.763 154.87L541.932 152.868ZM587.372 165.404C587.345 167.387 587.292 169.389 587.212 171.399L589.214 171.48C589.303 169.451 589.356 167.432 589.374 165.422L587.372 165.395V165.404ZM555.836 153.485C553.834 153.485 551.842 153.44 549.867 153.368L549.796 155.379C551.797 155.45 553.808 155.495 555.836 155.504V153.494V153.485ZM478.824 127.359C477.409 125.974 476.057 124.535 474.758 123.034L473.246 124.348C474.58 125.894 475.977 127.368 477.427 128.788L478.824 127.35V127.359ZM569.767 152.984C567.774 153.127 565.782 153.243 563.807 153.324L563.887 155.334C565.888 155.254 567.899 155.138 569.909 154.986L569.767 152.984ZM469.946 116.762C468.923 115.261 467.953 113.715 467.046 112.116C466.966 111.982 466.894 111.848 466.823 111.714L465.08 112.697C465.16 112.831 465.231 112.974 465.311 113.108C466.254 114.752 467.25 116.342 468.3 117.888L469.955 116.753L469.946 116.762ZM583.627 151.474C581.652 151.76 579.677 152.01 577.702 152.234L577.925 154.235C579.917 154.012 581.91 153.753 583.912 153.467L583.627 151.474ZM587.061 151.412C587.176 153.395 587.265 155.397 587.319 157.407L589.32 157.353C589.267 155.316 589.178 153.297 589.062 151.296L587.061 151.412ZM463.55 104.575C462.873 102.689 462.34 100.795 461.939 98.91L459.982 99.3299C460.4 101.305 460.961 103.279 461.664 105.254L463.55 104.575ZM597.353 149.035C595.405 149.446 593.448 149.83 591.491 150.197L591.847 152.171C593.822 151.814 595.797 151.421 597.763 151.001L597.353 149.035ZM585.717 137.482C585.984 139.448 586.216 141.431 586.42 143.442L588.413 143.236C588.208 141.208 587.968 139.207 587.701 137.214L585.717 137.482ZM610.893 145.702C608.971 146.238 607.05 146.748 605.111 147.239L605.591 149.187C607.539 148.696 609.487 148.177 611.427 147.641L610.893 145.702ZM461.023 91.1187C460.979 89.1351 461.076 87.1784 461.317 85.2395L459.333 84.9982C459.093 87.0265 458.986 89.0815 459.03 91.1633L461.032 91.1187H461.023ZM624.192 141.512C622.315 142.173 620.42 142.807 618.526 143.415L619.131 145.327C621.052 144.711 622.956 144.076 624.851 143.406L624.192 141.512ZM583.307 123.704C583.725 125.643 584.116 127.6 584.472 129.584L586.438 129.226C586.073 127.216 585.682 125.232 585.264 123.276L583.307 123.704ZM637.189 136.455C635.366 137.241 633.515 137.991 631.656 138.724L632.386 140.592C634.263 139.85 636.122 139.09 637.972 138.295L637.189 136.446V136.455ZM462.953 77.5733C463.541 75.6969 464.252 73.8653 465.08 72.0783L463.265 71.2295C462.402 73.0969 461.664 75.009 461.05 76.9746L462.962 77.5733H462.953ZM579.775 110.177C580.353 112.071 580.905 113.992 581.43 115.931L583.36 115.413C582.835 113.438 582.275 111.499 581.688 109.578L579.775 110.168V110.177ZM649.804 130.522C648.042 131.433 646.254 132.318 644.448 133.176L645.302 134.989C647.126 134.123 648.932 133.229 650.72 132.309L649.804 130.522ZM468.958 65.252C470.061 63.6348 471.271 62.0801 472.57 60.5879L471.067 59.2566C469.714 60.8024 468.46 62.4196 467.304 64.1083L468.958 65.243V65.252ZM575.051 97.0336C575.807 98.8563 576.537 100.715 577.231 102.609L579.108 101.912C578.405 99.9911 577.667 98.1058 576.902 96.2563L575.051 97.0336ZM661.956 123.669C660.265 124.705 658.557 125.724 656.814 126.716L657.801 128.467C659.563 127.466 661.297 126.439 662.996 125.384L661.947 123.669H661.956ZM569.029 84.4532C569.981 86.1776 570.897 87.9468 571.777 89.7606L573.574 88.876C572.676 87.0354 571.742 85.2395 570.781 83.4793L569.029 84.4532ZM478.192 55.084C479.696 53.8242 481.27 52.6448 482.916 51.5547L481.813 49.8749C480.105 51.0097 478.459 52.2338 476.902 53.5383L478.183 55.084H478.192ZM673.503 115.851C671.919 117.03 670.291 118.192 668.636 119.326L669.766 120.988C671.439 119.836 673.084 118.665 674.695 117.468L673.503 115.851ZM561.592 72.6859C562.748 74.2763 563.869 75.9114 564.963 77.609L566.645 76.519C565.533 74.7945 564.385 73.1237 563.211 71.5065L561.592 72.6948V72.6859ZM489.784 47.7305C491.563 46.9085 493.386 46.1937 495.264 45.5772L494.641 43.6651C492.693 44.3085 490.789 45.0501 488.947 45.9078L489.784 47.7305ZM684.258 106.996C682.799 108.327 681.295 109.641 679.756 110.919L681.037 112.464C682.603 111.16 684.124 109.828 685.601 108.479L684.258 106.996ZM552.616 62.0979C553.995 63.4829 555.347 64.9393 556.654 66.4582L558.167 65.1358C556.823 63.5812 555.445 62.089 554.03 60.6684L552.616 62.089V62.0979ZM502.887 43.7187C504.809 43.406 506.757 43.2005 508.741 43.1201L508.652 41.1097C506.597 41.1991 504.56 41.4135 502.567 41.7352L502.887 43.7187ZM542.029 53.2077C542.029 53.2077 542.092 53.2523 542.118 53.2702C543.702 54.3603 545.25 55.5218 546.762 56.7638L548.025 55.2091C546.46 53.9314 544.867 52.7341 543.248 51.6083C543.213 51.5904 543.186 51.5636 543.15 51.5458L542.021 53.2077H542.029ZM516.578 43.3882C518.5 43.6026 520.439 43.9332 522.378 44.3889L522.832 42.4321C520.813 41.9675 518.802 41.619 516.801 41.3957L516.578 43.3971V43.3882ZM529.887 46.7209C531.684 47.4268 533.472 48.2309 535.269 49.1601L536.185 47.3731C534.334 46.4171 532.475 45.5772 530.625 44.8535L529.895 46.7298L529.887 46.7209ZM693.972 97.0336C692.682 98.5257 691.348 100 689.96 101.447L691.401 102.841C692.816 101.367 694.177 99.8749 695.484 98.347L693.972 97.0336Z" fill="#20EDBA"/>
<path d="M328.981 351.635V327.672C328.981 324.124 329.034 320.184 329.132 315.851C329.23 311.526 329.381 307.139 329.577 302.698C329.772 298.258 329.977 293.88 330.173 289.546C330.369 285.222 330.573 281.281 330.769 277.725H329.577C327.193 284.158 324.711 290.484 322.131 296.703C319.551 302.913 316.864 309.239 314.089 315.672L296.804 351.617H328.99L328.981 351.635ZM396.919 394.907H376.654V442.173H328.972V394.907H248.517V354.959L312.879 231.129H376.645V351.626H396.91V394.898L396.919 394.907Z" fill="#5900CB"/>
<path d="M483.334 442.182C472.801 442.182 463.274 439.796 454.725 435.025C446.185 430.254 438.783 423.204 432.521 413.885C426.258 404.566 421.445 393.022 418.065 379.271C414.684 365.511 413.003 349.643 413.003 331.674C413.003 313.706 414.693 297.891 418.065 284.239C421.445 270.595 426.258 259.274 432.521 250.286C438.774 241.297 446.176 234.534 454.725 229.977C463.265 225.429 472.801 223.15 483.334 223.15C493.867 223.15 503.154 225.429 511.792 229.977C520.43 234.525 527.885 241.351 534.139 250.447C540.393 259.542 545.214 270.863 548.595 284.399C551.975 297.936 553.657 313.688 553.657 331.665C553.657 349.643 551.966 365.511 548.595 379.262C545.214 393.022 540.402 404.557 534.139 413.876C527.885 423.195 520.43 430.245 511.792 435.016C503.154 439.787 493.662 442.173 483.334 442.173V442.182ZM483.334 398.24C486.314 398.24 489.143 397.409 491.83 395.747C494.516 394.085 496.847 390.806 498.831 385.927C500.815 381.049 502.407 374.276 503.599 365.618C504.791 356.96 505.387 345.649 505.387 331.665C505.387 317.682 504.791 306.478 503.599 298.043C502.407 289.609 500.815 283.068 498.831 278.404C496.847 273.74 494.508 270.693 491.83 269.255C489.152 267.816 486.314 267.092 483.334 267.092C480.354 267.092 477.525 267.816 474.839 269.255C472.161 270.693 469.821 273.749 467.838 278.404C465.854 283.068 464.261 289.609 463.069 298.043C461.877 306.478 461.281 317.682 461.281 331.665C461.281 345.649 461.877 356.96 463.069 365.618C464.261 374.276 465.854 381.04 467.838 385.927C469.821 390.806 472.161 394.085 474.839 395.747C477.516 397.409 480.354 398.24 483.334 398.24Z" fill="#5900CB"/>
<path d="M650.213 351.635V327.672C650.213 324.124 650.266 320.184 650.364 315.851C650.462 311.526 650.613 307.139 650.809 302.698C651.005 298.258 651.209 293.88 651.405 289.546C651.601 285.222 651.805 281.281 652.001 277.725H650.809C648.425 284.158 645.943 290.484 643.363 296.703C640.783 302.913 638.097 309.239 635.321 315.672L618.036 351.617H650.222L650.213 351.635ZM718.151 394.907H697.886V442.173H650.204V394.907H569.749V354.959L634.111 231.129H697.877V351.626H718.142V394.898L718.151 394.907Z" fill="#5900CB"/>
<path d="M312.292 351.635V327.672C312.292 324.124 312.345 320.184 312.443 315.851C312.541 311.526 312.692 307.139 312.888 302.698C313.084 298.258 313.288 293.88 313.484 289.546C313.68 285.222 313.884 281.281 314.08 277.725H312.888C310.504 284.158 308.022 290.484 305.442 296.703C302.862 302.913 300.176 309.239 297.4 315.672L280.115 351.617H312.301L312.292 351.635ZM380.23 394.907H359.965V442.173H312.283V394.907H231.828V354.959L296.19 231.129H359.956V351.626H380.221V394.898L380.23 394.907Z" fill="white"/>
<path d="M467.25 442.182C456.717 442.182 447.19 439.796 438.641 435.025C430.101 430.254 422.699 423.204 416.437 413.885C410.174 404.566 405.361 393.022 401.981 379.271C398.6 365.511 396.919 349.643 396.919 331.674C396.919 313.706 398.609 297.891 401.981 284.239C405.361 270.595 410.174 259.274 416.437 250.286C422.69 241.297 430.092 234.534 438.641 229.977C447.181 225.429 456.717 223.15 467.25 223.15C477.783 223.15 487.07 225.429 495.708 229.977C504.346 234.525 511.801 241.351 518.055 250.447C524.309 259.542 529.13 270.863 532.511 284.399C535.891 297.936 537.573 313.688 537.573 331.665C537.573 349.643 535.882 365.511 532.511 379.262C529.13 393.022 524.318 404.557 518.055 413.876C511.801 423.195 504.346 430.245 495.708 435.016C487.07 439.787 477.578 442.173 467.25 442.173V442.182ZM467.25 398.24C470.23 398.24 473.059 397.409 475.746 395.747C478.432 394.085 480.763 390.806 482.747 385.927C484.731 381.049 486.323 374.276 487.515 365.618C488.707 356.96 489.303 345.649 489.303 331.665C489.303 317.682 488.707 306.478 487.515 298.043C486.323 289.609 484.731 283.068 482.747 278.404C480.763 273.74 478.424 270.693 475.746 269.255C473.068 267.816 470.23 267.092 467.25 267.092C464.27 267.092 461.441 267.816 458.755 269.255C456.077 270.693 453.737 273.749 451.754 278.404C449.77 283.068 448.177 289.609 446.985 298.043C445.793 306.478 445.197 317.682 445.197 331.665C445.197 345.649 445.793 356.96 446.985 365.618C448.177 374.276 449.77 381.04 451.754 385.927C453.737 390.806 456.077 394.085 458.755 395.747C461.432 397.409 464.27 398.24 467.25 398.24Z" fill="white"/>
<path d="M634.12 351.635V327.672C634.12 324.124 634.174 320.184 634.271 315.851C634.369 311.526 634.521 307.139 634.716 302.698C634.912 298.258 635.117 293.88 635.312 289.546C635.508 285.222 635.713 281.281 635.908 277.725H634.716C632.332 284.158 629.85 290.484 627.27 296.703C624.691 302.913 622.004 309.239 619.228 315.672L601.944 351.617H634.129L634.12 351.635ZM702.059 394.907H681.794V442.173H634.111V394.907H553.656V354.959L618.019 231.129H681.785V351.626H702.05V394.898L702.059 394.907Z" fill="white"/>
<path fill-rule="evenodd" clip-rule="evenodd" d="M293.45 442.182C293.45 442.182 284.795 442.173 283.914 427.421C283.914 427.421 294.464 427.52 296.679 437.598C296.679 437.598 297.071 424.285 309.774 418.996C309.774 418.996 313.493 436.464 301.483 442.182H293.45Z" fill="url(#paint5_linear_77_1221)"/>
<path fill-rule="evenodd" clip-rule="evenodd" d="M607.041 442.11C595.797 442.584 595.957 430.852 595.957 430.852C595.957 430.852 604.995 429.325 608.251 435.159C604.995 429.664 603.118 420.041 605.146 416.217C605.146 416.217 618.054 417.37 618.535 432.934C618.535 432.934 617.947 421.48 635.891 413.867C635.891 413.867 639.716 433.953 622.751 442.182L607.032 442.11H607.041Z" fill="url(#paint6_linear_77_1221)"/>
<path fill-rule="evenodd" clip-rule="evenodd" d="M751.146 71.7566L678.484 93.7545L662.169 81.0936L751.137 71.7477L751.146 71.7566Z" fill="#CED4F4"/>
<path fill-rule="evenodd" clip-rule="evenodd" d="M751.146 71.7566L678.484 93.7545L680.753 116.092L751.137 71.7477L751.146 71.7566Z" fill="#838FCA"/>
<path fill-rule="evenodd" clip-rule="evenodd" d="M751.146 71.7566L679.703 97.4714L695.796 122.489L751.146 71.7566Z" fill="#CED4F4"/>
<path fill-rule="evenodd" clip-rule="evenodd" d="M321.766 442.182C318.902 434.212 329.852 422.579 339.469 430.897C332.77 417.915 345.109 400.322 364.725 408.837C361.86 391.53 394.775 389.796 392.987 413.867C398.529 410.793 411.49 416.217 406.037 428.029C413.127 423.15 429.158 430.236 417.326 442.191H321.766V442.182Z" fill="url(#paint7_linear_77_1221)"/>
</g>
<defs>
<linearGradient id="paint0_linear_77_1221" x1="706.65" y1="257.283" x2="715.41" y2="312.602" gradientUnits="userSpaceOnUse">
<stop stop-color="#FFCC98"/>
<stop offset="1" stop-color="#D54E8B"/>
</linearGradient>
<linearGradient id="paint1_linear_77_1221" x1="702.297" y1="246.316" x2="696.306" y2="320.948" gradientUnits="userSpaceOnUse">
<stop stop-color="#F9A35E"/>
<stop offset="1" stop-color="#AC1A5A"/>
</linearGradient>
<linearGradient id="paint2_linear_77_1221" x1="783.2" y1="357.446" x2="734.56" y2="407.717" gradientUnits="userSpaceOnUse">
<stop stop-color="#FFCC98"/>
<stop offset="1" stop-color="#D54E8B"/>
</linearGradient>
<linearGradient id="paint3_linear_77_1221" x1="745.778" y1="370.858" x2="725.89" y2="433.243" gradientUnits="userSpaceOnUse">
<stop stop-color="#C15288"/>
<stop offset="1" stop-color="#B9184C"/>
</linearGradient>
<linearGradient id="paint4_linear_77_1221" x1="734.82" y1="259.677" x2="734.82" y2="391.604" gradientUnits="userSpaceOnUse">
<stop stop-color="#FFCC98"/>
<stop offset="1" stop-color="#D54E8B"/>
</linearGradient>
<linearGradient id="paint5_linear_77_1221" x1="300.244" y1="419.734" x2="300.244" y2="440.928" gradientUnits="userSpaceOnUse">
<stop stop-color="#0AE3DC"/>
<stop offset="1" stop-color="#F3E605"/>
</linearGradient>
<linearGradient id="paint6_linear_77_1221" x1="615.241" y1="416.466" x2="615.241" y2="445.272" gradientUnits="userSpaceOnUse">
<stop stop-color="#0FD2B1"/>
<stop offset="1" stop-color="#E9D80D"/>
</linearGradient>
<linearGradient id="paint7_linear_77_1221" x1="371.095" y1="55676.1" x2="371.095" y2="55718.5" gradientUnits="userSpaceOnUse">
<stop stop-color="#0AE3DC"/>
<stop offset="1" stop-color="#F3E605"/>
</linearGradient>
<clipPath id="clip0_77_1221">
<rect width="830" height="450" fill="white"/>
</clipPath>
</defs>
</svg>
